<?xml version="1.0" encoding="UTF-8" ?>
<!DOCTYPE svg PUBLIC "-//W3C//DTD SVG 1.1//EN" "http://www.w3.org/Graphics/SVG/1.1/DTD/svg11.dtd">
<svg width="293pt" height="95pt" viewBox="0 0 293 95" version="1.1" xmlns="http://www.w3.org/2000/svg">
<path fill="#ffffff" d=" M 0.00 0.00 L 293.00 0.00 L 293.00 95.00 L 0.00 95.00 L 0.00 0.00 Z" />
<path fill="#005ba1" d=" M 18.98 13.96 C 22.52 10.20 27.99 9.40 32.89 9.12 C 46.31 9.12 59.72 9.12 73.14 9.13 C 72.04 14.69 71.20 20.30 70.11 25.87 C 58.07 25.87 46.03 25.88 34.00 25.87 C 33.40 28.19 33.02 30.56 32.90 32.95 C 42.29 33.02 51.68 32.86 61.07 33.03 C 64.48 33.23 68.84 34.17 70.10 37.79 C 71.47 40.48 70.87 43.60 70.35 46.42 C 69.29 51.77 68.63 57.19 67.35 62.49 C 65.58 68.19 59.52 71.41 53.81 71.50 C 38.05 71.59 22.27 71.48 6.50 71.55 C 7.36 65.96 8.53 60.42 9.33 54.83 C 22.91 54.70 36.49 54.83 50.07 54.76 C 50.50 52.36 50.94 49.95 51.32 47.54 C 42.03 47.42 32.73 47.70 23.45 47.41 C 19.80 47.00 14.87 46.75 13.25 42.79 C 12.00 38.10 13.79 33.34 14.43 28.69 C 15.55 23.71 15.37 17.99 18.98 13.96 Z" />
<path fill="#005ba1" d=" M 87.21 10.22 C 90.29 8.79 93.74 9.13 97.03 9.11 C 107.38 9.14 117.74 9.11 128.09 9.12 C 131.89 9.02 135.90 10.92 137.65 14.41 C 139.05 17.38 138.50 20.73 137.98 23.83 C 135.14 39.73 132.36 55.65 129.55 71.55 C 123.04 71.54 116.53 71.50 110.02 71.57 C 111.71 63.17 113.26 54.72 114.46 46.24 C 107.30 46.21 100.14 46.23 92.98 46.22 C 91.45 54.63 89.90 63.05 88.58 71.49 C 82.12 71.63 75.67 71.40 69.21 71.63 C 72.25 54.83 75.07 37.99 78.15 21.19 C 79.02 16.30 82.45 11.85 87.21 10.22 Z" />
<path fill="#005ba1" d=" M 144.47 9.14 C 152.53 9.08 160.59 9.17 168.65 9.09 C 172.88 19.47 178.10 29.44 181.78 40.05 C 183.25 29.70 185.04 19.39 187.01 9.12 C 193.18 9.12 199.35 9.14 205.52 9.10 C 201.85 29.90 198.06 50.67 194.58 71.49 C 188.72 71.54 182.86 71.57 177.00 71.52 C 175.58 71.78 175.22 70.15 174.76 69.20 C 169.37 56.76 163.38 44.57 158.41 31.96 C 158.30 38.51 156.76 44.90 155.59 51.32 C 154.30 58.09 153.20 64.90 151.72 71.63 C 145.49 71.43 139.26 71.54 133.03 71.57 C 137.04 50.80 140.87 29.99 144.47 9.14 Z" />
<path fill="#005ba1" d=" M 209.05 18.09 C 210.03 13.08 214.69 9.41 219.70 9.14 C 234.33 9.05 248.96 9.22 263.59 9.06 C 262.66 13.64 262.00 18.28 261.08 22.87 C 249.05 22.87 237.03 22.90 225.00 22.85 C 223.50 29.23 222.69 35.74 221.44 42.16 C 230.99 42.08 240.55 42.16 250.10 42.11 C 253.15 42.18 256.75 42.67 258.73 45.28 C 260.37 47.56 259.99 50.57 259.60 53.19 C 257.98 62.02 256.55 70.89 254.85 79.71 C 253.52 85.80 247.00 88.75 241.27 88.85 C 161.97 88.94 82.67 88.81 3.37 88.91 C 4.26 83.96 4.94 78.97 6.08 74.06 C 83.81 73.86 161.54 73.96 239.26 73.98 C 240.57 67.56 241.51 61.07 242.78 54.64 C 233.61 54.33 224.43 54.69 215.26 54.45 C 212.22 54.18 209.00 54.11 206.25 52.64 C 203.36 50.68 203.92 46.76 204.41 43.79 C 206.00 35.23 207.29 26.61 209.05 18.09 Z" />
<path fill="#005ba1" d=" M 269.24 9.13 C 275.58 9.12 281.92 9.12 288.26 9.13 C 287.98 15.08 287.08 20.97 286.30 26.87 C 283.43 47.33 280.62 67.79 277.74 88.25 C 271.29 88.19 264.84 88.26 258.39 88.21 C 261.92 61.84 265.92 35.52 269.24 9.13 Z" />
<path fill="#ffffff" d=" M 95.10 33.57 C 95.66 31.01 96.11 28.43 96.54 25.84 C 103.73 25.91 110.93 25.85 118.13 25.87 C 117.75 28.49 117.29 31.09 116.89 33.69 C 109.63 33.75 102.35 33.98 95.10 33.57 Z" />
</svg>
